<svg xmlns="http://www.w3.org/2000/svg" viewBox="-40.96 -40.96 1105.92 1105.92" width="1024" height="1024">
  <path fill="currentColor" d="M149.883623 873.911618c47.094581 47.094581 101.765247 83.95121 162.783444 109.75085 63.065787 26.618676 130.226755 40.337532 199.230553 40.337532 69.003799 0 136.164767-13.514097 199.230554-40.337532 61.018196-25.79964 115.688862-62.656269 162.783444-109.75085s83.95121-101.765247 109.75085-162.783444c26.618676-63.065787 40.337532-130.226755 40.337532-199.230554 0-69.003799-13.514097-136.164767-40.337532-199.230553-25.79964-61.018196-62.656269-115.688862-109.75085-162.783444-46.889822-46.889822-101.765247-83.95121-162.783444-109.75085C648.062388 13.514097 580.90142 0 511.89762 0s-136.164767 13.514097-199.230553 40.337532c-61.018196 25.79964-115.688862 62.656269-162.783444 109.75085s-83.95121 101.765247-109.75085 162.783444C13.514097 375.732853 0 442.893821 0 511.89762s13.514097 136.164767 40.337532 199.230554c25.594881 61.018196 62.656269 115.688862 109.546091 162.783444zM97.670066 511.89762c0-228.511098 185.921216-414.227554 414.227554-414.227554 228.511098 0 414.227554 185.921216 414.227555 414.227554S740.408718 926.125175 511.89762 926.125175c-228.511098 0-414.227554-185.716457-414.227554-414.227555z M539.130574 244.277544c-8.190362-4.709458-17.609278-7.371326-27.232954-7.371325-9.623675 0-19.042591 2.457109-27.232953 7.371325-16.790242 9.623675-27.232953 27.847231-27.232953 47.299341 0 30.09958 24.366327 54.465907 54.465906 54.465906 30.09958 0 54.465907-24.366327 54.465907-54.465906 0-19.45211-10.442711-37.470906-27.232953-47.299341zM566.363527 732.218356v-284.615077c0-30.09958-24.366327-54.465907-54.465907-54.465906-30.09958 0-54.465907 24.366327-54.465906 54.465906v284.615077c0 30.09958 24.366327 54.465907 54.465906 54.465907 30.09958 0 54.465907-24.366327 54.465907-54.465907z"/>
</svg>

